# xmcd
#
# Track frame offsets:
#	150
#	18380
#	35465
#	53663
#	71474
#	86178
#	100971
#	115339
#	127594
#	145767
#	162852
#	181201
#	199097
#	214190
#	228813
#	243342
#
# Disc length: 3404 seconds
#
# Revision: 2
# Processed by: cddbd v1.5.2PL0 Copyright (c) Steve Scherf et al.
# Submitted via: audiograbber 1.83.01
#
DISCID=d00d4a10
DTITLE=Hill, Faith - SDK9020
DYEAR=1900
DGENRE=Karaoke
TTITLE0=Breathe (Vocal)
TTITLE1=Cry (vocal)
TTITLE2=Let Me Go (vocal)
TTITLE3=Piece of My Heart (vocal)
TTITLE4=Take Me As I Am (vocal)
TTITLE5=It Matters To Me (vocal)
TTITLE6=This Kiss (vocal)
TTITLE7=Wild One (vocal)
TTITLE8=Breathe
TTITLE9=Cry
TTITLE10=Let Me Go
TTITLE11=Piece Of My Heart
TTITLE12=Take Me As I Am
TTITLE13=It Matters To Me
TTITLE14=This Kiss
TTITLE15=Wild One
EXTD=
EXTT0=
EXTT1=
EXTT2=
EXTT3=
EXTT4=
EXTT5=
EXTT6=
EXTT7=
EXTT8=
EXTT9=
EXTT10=
EXTT11=
EXTT12=
EXTT13=
EXTT14=
EXTT15=
PLAYORDER=
